<mxfile host="Electron" agent="Mozilla/5.0 (Windows NT 10.0; Win64; x64) AppleWebKit/537.36 (KHTML, like Gecko) draw.io/26.2.15 Chrome/134.0.6998.205 Electron/35.2.1 Safari/537.36" version="26.2.15">
  <diagram id="R2lEEEUBdFMjLlhIrx00" name="Page-1">
    <mxGraphModel dx="2758" dy="1096" grid="1" gridSize="10" guides="1" tooltips="1" connect="1" arrows="1" fold="1" page="0" pageScale="1" pageWidth="1169" pageHeight="827" math="0" shadow="0" extFonts="Permanent Marker^https://fonts.googleapis.com/css?family=Permanent+Marker">
      <root>
        <mxCell id="0" />
        <mxCell id="1" parent="0" />
        <mxCell id="Rzq_DDP6c-UKo2eca1ub-1" value="Product" style="rounded=1;arcSize=10;whiteSpace=wrap;html=1;align=center;" parent="1" vertex="1">
          <mxGeometry x="-560" y="150" width="100" height="40" as="geometry" />
        </mxCell>
        <mxCell id="Rzq_DDP6c-UKo2eca1ub-2" value="Customer" style="rounded=1;arcSize=10;whiteSpace=wrap;html=1;align=center;" parent="1" vertex="1">
          <mxGeometry x="-860" y="640" width="100" height="40" as="geometry" />
        </mxCell>
        <mxCell id="JLitpc6Swg50_wZY0hE7-1" value="Category" style="rounded=1;arcSize=10;whiteSpace=wrap;html=1;align=center;" parent="1" vertex="1">
          <mxGeometry x="-20" y="-100" width="100" height="40" as="geometry" />
        </mxCell>
        <mxCell id="JLitpc6Swg50_wZY0hE7-4" value="Order" style="rounded=1;arcSize=10;whiteSpace=wrap;html=1;align=center;" parent="1" vertex="1">
          <mxGeometry x="15.869999999999997" y="520" width="100" height="40" as="geometry" />
        </mxCell>
        <mxCell id="zZzf0Nz7zw1-_njM-lTV-15" value="" style="endArrow=none;html=1;rounded=0;exitX=1;exitY=1;exitDx=0;exitDy=0;entryX=0;entryY=0.25;entryDx=0;entryDy=0;" parent="1" source="zZzf0Nz7zw1-_njM-lTV-16" target="Rzq_DDP6c-UKo2eca1ub-1" edge="1">
          <mxGeometry relative="1" as="geometry">
            <mxPoint x="-70" y="170" as="sourcePoint" />
            <mxPoint x="130" y="160" as="targetPoint" />
          </mxGeometry>
        </mxCell>
        <mxCell id="zZzf0Nz7zw1-_njM-lTV-16" value="Product_id" style="ellipse;whiteSpace=wrap;html=1;align=center;fontStyle=4;" parent="1" vertex="1">
          <mxGeometry x="-660" y="100" width="80" height="40" as="geometry" />
        </mxCell>
        <mxCell id="zZzf0Nz7zw1-_njM-lTV-17" value="Name" style="ellipse;whiteSpace=wrap;html=1;align=center;" parent="1" vertex="1">
          <mxGeometry x="-660" y="150" width="80" height="40" as="geometry" />
        </mxCell>
        <mxCell id="zZzf0Nz7zw1-_njM-lTV-18" value="Price" style="ellipse;whiteSpace=wrap;html=1;align=center;" parent="1" vertex="1">
          <mxGeometry x="-660" y="200" width="80" height="40" as="geometry" />
        </mxCell>
        <mxCell id="zZzf0Nz7zw1-_njM-lTV-20" value="" style="endArrow=none;html=1;rounded=0;exitX=1;exitY=0.5;exitDx=0;exitDy=0;entryX=0;entryY=0.5;entryDx=0;entryDy=0;" parent="1" source="zZzf0Nz7zw1-_njM-lTV-17" target="Rzq_DDP6c-UKo2eca1ub-1" edge="1">
          <mxGeometry relative="1" as="geometry">
            <mxPoint x="70" y="130" as="sourcePoint" />
            <mxPoint x="140" y="170" as="targetPoint" />
          </mxGeometry>
        </mxCell>
        <mxCell id="zZzf0Nz7zw1-_njM-lTV-21" value="" style="endArrow=none;html=1;rounded=0;exitX=1;exitY=0;exitDx=0;exitDy=0;entryX=0;entryY=0.75;entryDx=0;entryDy=0;" parent="1" source="zZzf0Nz7zw1-_njM-lTV-18" target="Rzq_DDP6c-UKo2eca1ub-1" edge="1">
          <mxGeometry relative="1" as="geometry">
            <mxPoint x="210" y="130" as="sourcePoint" />
            <mxPoint x="155" y="170" as="targetPoint" />
          </mxGeometry>
        </mxCell>
        <mxCell id="zZzf0Nz7zw1-_njM-lTV-23" value="CID" style="ellipse;whiteSpace=wrap;html=1;align=center;fontStyle=4;" parent="1" vertex="1">
          <mxGeometry x="100" y="-130" width="80" height="40" as="geometry" />
        </mxCell>
        <mxCell id="zZzf0Nz7zw1-_njM-lTV-24" value="" style="endArrow=none;html=1;rounded=0;exitX=0;exitY=0.5;exitDx=0;exitDy=0;entryX=1;entryY=0.5;entryDx=0;entryDy=0;" parent="1" source="zZzf0Nz7zw1-_njM-lTV-23" target="JLitpc6Swg50_wZY0hE7-1" edge="1">
          <mxGeometry relative="1" as="geometry">
            <mxPoint x="-180" y="-90" as="sourcePoint" />
            <mxPoint x="20" y="-100" as="targetPoint" />
          </mxGeometry>
        </mxCell>
        <mxCell id="zZzf0Nz7zw1-_njM-lTV-25" value="Name" style="ellipse;whiteSpace=wrap;html=1;align=center;" parent="1" vertex="1">
          <mxGeometry x="100" y="-70" width="80" height="40" as="geometry" />
        </mxCell>
        <mxCell id="zZzf0Nz7zw1-_njM-lTV-26" value="" style="endArrow=none;html=1;rounded=0;exitX=0;exitY=0.5;exitDx=0;exitDy=0;entryX=1;entryY=0.5;entryDx=0;entryDy=0;" parent="1" source="zZzf0Nz7zw1-_njM-lTV-25" target="JLitpc6Swg50_wZY0hE7-1" edge="1">
          <mxGeometry relative="1" as="geometry">
            <mxPoint x="-40" y="-130" as="sourcePoint" />
            <mxPoint x="35" y="-100" as="targetPoint" />
          </mxGeometry>
        </mxCell>
        <mxCell id="iqEW3S5Abbc1LRhvo96I-2" value="Admin" style="rounded=1;arcSize=10;whiteSpace=wrap;html=1;align=center;" parent="1" vertex="1">
          <mxGeometry x="-860" width="100" height="40" as="geometry" />
        </mxCell>
        <mxCell id="iqEW3S5Abbc1LRhvo96I-25" value="" style="endArrow=none;html=1;rounded=0;entryX=1;entryY=0.75;entryDx=0;entryDy=0;exitX=0;exitY=0.5;exitDx=0;exitDy=0;" parent="1" source="Us_oTw6PpuAewZGP5U6Y-123" target="Us_oTw6PpuAewZGP5U6Y-87" edge="1">
          <mxGeometry relative="1" as="geometry">
            <mxPoint x="-110" y="670" as="sourcePoint" />
            <mxPoint x="-170" y="680" as="targetPoint" />
          </mxGeometry>
        </mxCell>
        <mxCell id="iqEW3S5Abbc1LRhvo96I-31" value="manage" style="shape=rhombus;perimeter=rhombusPerimeter;whiteSpace=wrap;html=1;align=center;" parent="1" vertex="1">
          <mxGeometry x="-640" y="-110" width="120" height="60" as="geometry" />
        </mxCell>
        <mxCell id="iqEW3S5Abbc1LRhvo96I-37" value="OID" style="ellipse;whiteSpace=wrap;html=1;align=center;fontStyle=4;" parent="1" vertex="1">
          <mxGeometry x="140" y="570" width="80" height="40" as="geometry" />
        </mxCell>
        <mxCell id="iqEW3S5Abbc1LRhvo96I-39" value="" style="endArrow=none;html=1;rounded=0;exitX=1;exitY=0.5;exitDx=0;exitDy=0;entryX=0.5;entryY=1;entryDx=0;entryDy=0;" parent="1" source="Us_oTw6PpuAewZGP5U6Y-123" target="JLitpc6Swg50_wZY0hE7-4" edge="1">
          <mxGeometry relative="1" as="geometry">
            <mxPoint x="-50" y="700" as="sourcePoint" />
            <mxPoint x="-180" y="870" as="targetPoint" />
            <Array as="points">
              <mxPoint x="66" y="670" />
            </Array>
          </mxGeometry>
        </mxCell>
        <mxCell id="iqEW3S5Abbc1LRhvo96I-45" value="" style="endArrow=none;html=1;rounded=0;exitX=1;exitY=0.75;exitDx=0;exitDy=0;entryX=0;entryY=0;entryDx=0;entryDy=0;" parent="1" source="JLitpc6Swg50_wZY0hE7-4" target="iqEW3S5Abbc1LRhvo96I-37" edge="1">
          <mxGeometry relative="1" as="geometry">
            <mxPoint x="-64.13" y="660" as="sourcePoint" />
            <mxPoint x="15.869999999999997" y="620" as="targetPoint" />
          </mxGeometry>
        </mxCell>
        <mxCell id="iqEW3S5Abbc1LRhvo96I-51" value="OrderDetails_ID" style="ellipse;whiteSpace=wrap;html=1;align=center;fontStyle=4;" parent="1" vertex="1">
          <mxGeometry x="-440" y="580" width="100" height="40" as="geometry" />
        </mxCell>
        <mxCell id="iqEW3S5Abbc1LRhvo96I-89" value="" style="endArrow=none;html=1;rounded=0;entryX=0;entryY=0.5;entryDx=0;entryDy=0;exitX=1;exitY=0.5;exitDx=0;exitDy=0;" parent="1" source="JLitpc6Swg50_wZY0hE7-4" target="r9ePCEnkkcIJbyER_ltj-10" edge="1">
          <mxGeometry relative="1" as="geometry">
            <mxPoint x="65.87" y="580" as="sourcePoint" />
            <mxPoint x="75.87" y="610" as="targetPoint" />
          </mxGeometry>
        </mxCell>
        <mxCell id="iqEW3S5Abbc1LRhvo96I-90" value="" style="endArrow=none;html=1;rounded=0;exitX=1;exitY=1;exitDx=0;exitDy=0;entryX=0.5;entryY=0;entryDx=0;entryDy=0;" parent="1" source="iqEW3S5Abbc1LRhvo96I-51" target="Us_oTw6PpuAewZGP5U6Y-87" edge="1">
          <mxGeometry relative="1" as="geometry">
            <mxPoint x="-410" y="600" as="sourcePoint" />
            <mxPoint x="-330" y="640" as="targetPoint" />
            <Array as="points" />
          </mxGeometry>
        </mxCell>
        <mxCell id="iqEW3S5Abbc1LRhvo96I-93" value="" style="endArrow=none;html=1;rounded=0;entryX=0.5;entryY=0;entryDx=0;entryDy=0;exitX=0;exitY=1;exitDx=0;exitDy=0;" parent="1" source="r9ePCEnkkcIJbyER_ltj-3" target="Us_oTw6PpuAewZGP5U6Y-87" edge="1">
          <mxGeometry relative="1" as="geometry">
            <mxPoint x="-479.99999999999545" y="660" as="sourcePoint" />
            <mxPoint x="-330" y="640" as="targetPoint" />
          </mxGeometry>
        </mxCell>
        <mxCell id="r9ePCEnkkcIJbyER_ltj-3" value="Quantity" style="ellipse;whiteSpace=wrap;html=1;align=center;" parent="1" vertex="1">
          <mxGeometry x="-320" y="580" width="100" height="40" as="geometry" />
        </mxCell>
        <mxCell id="r9ePCEnkkcIJbyER_ltj-4" value="places" style="shape=rhombus;perimeter=rhombusPerimeter;whiteSpace=wrap;html=1;align=center;" parent="1" vertex="1">
          <mxGeometry x="-630" y="630" width="120" height="60" as="geometry" />
        </mxCell>
        <mxCell id="r9ePCEnkkcIJbyER_ltj-5" value="" style="endArrow=none;html=1;rounded=0;exitX=0;exitY=0.5;exitDx=0;exitDy=0;entryX=1;entryY=0.5;entryDx=0;entryDy=0;" parent="1" source="r9ePCEnkkcIJbyER_ltj-4" target="Rzq_DDP6c-UKo2eca1ub-2" edge="1">
          <mxGeometry relative="1" as="geometry">
            <mxPoint x="-10" y="530" as="sourcePoint" />
            <mxPoint x="120" y="530" as="targetPoint" />
          </mxGeometry>
        </mxCell>
        <mxCell id="r9ePCEnkkcIJbyER_ltj-6" value="1" style="resizable=0;html=1;whiteSpace=wrap;align=right;verticalAlign=bottom;" parent="r9ePCEnkkcIJbyER_ltj-5" connectable="0" vertex="1">
          <mxGeometry x="1" relative="1" as="geometry">
            <mxPoint x="111" as="offset" />
          </mxGeometry>
        </mxCell>
        <mxCell id="r9ePCEnkkcIJbyER_ltj-7" value="" style="endArrow=none;html=1;rounded=0;exitX=0;exitY=0.5;exitDx=0;exitDy=0;entryX=1;entryY=0.5;entryDx=0;entryDy=0;" parent="1" source="Us_oTw6PpuAewZGP5U6Y-87" target="r9ePCEnkkcIJbyER_ltj-4" edge="1">
          <mxGeometry relative="1" as="geometry">
            <mxPoint x="-220" y="660" as="sourcePoint" />
            <mxPoint x="-170" y="800" as="targetPoint" />
          </mxGeometry>
        </mxCell>
        <mxCell id="r9ePCEnkkcIJbyER_ltj-8" value="N" style="resizable=0;html=1;whiteSpace=wrap;align=right;verticalAlign=bottom;" parent="r9ePCEnkkcIJbyER_ltj-7" connectable="0" vertex="1">
          <mxGeometry x="1" relative="1" as="geometry">
            <mxPoint x="20" as="offset" />
          </mxGeometry>
        </mxCell>
        <mxCell id="r9ePCEnkkcIJbyER_ltj-10" value="Total_Price" style="ellipse;whiteSpace=wrap;html=1;align=center;" parent="1" vertex="1">
          <mxGeometry x="140" y="520" width="80" height="40" as="geometry" />
        </mxCell>
        <mxCell id="Us_oTw6PpuAewZGP5U6Y-26" value="" style="edgeStyle=orthogonalEdgeStyle;rounded=0;orthogonalLoop=1;jettySize=auto;html=1;endArrow=none;startFill=0;" parent="1" source="Us_oTw6PpuAewZGP5U6Y-1" target="Us_oTw6PpuAewZGP5U6Y-25" edge="1">
          <mxGeometry relative="1" as="geometry" />
        </mxCell>
        <mxCell id="Us_oTw6PpuAewZGP5U6Y-1" value="User" style="rounded=1;arcSize=10;whiteSpace=wrap;html=1;align=center;" parent="1" vertex="1">
          <mxGeometry x="-1120" y="300" width="120" height="40" as="geometry" />
        </mxCell>
        <mxCell id="Us_oTw6PpuAewZGP5U6Y-2" value="UID" style="ellipse;whiteSpace=wrap;html=1;align=center;fontStyle=4;" parent="1" vertex="1">
          <mxGeometry x="-1105" y="220" width="90" height="40" as="geometry" />
        </mxCell>
        <mxCell id="Us_oTw6PpuAewZGP5U6Y-3" value="Name" style="ellipse;whiteSpace=wrap;html=1;align=center;" parent="1" vertex="1">
          <mxGeometry x="-1210" y="220" width="90" height="40" as="geometry" />
        </mxCell>
        <mxCell id="Us_oTw6PpuAewZGP5U6Y-4" value="Email" style="ellipse;whiteSpace=wrap;html=1;align=center;" parent="1" vertex="1">
          <mxGeometry x="-1260" y="270" width="90" height="40" as="geometry" />
        </mxCell>
        <mxCell id="Us_oTw6PpuAewZGP5U6Y-5" value="Phone" style="ellipse;whiteSpace=wrap;html=1;align=center;" parent="1" vertex="1">
          <mxGeometry x="-1260" y="330" width="90" height="40" as="geometry" />
        </mxCell>
        <mxCell id="Us_oTw6PpuAewZGP5U6Y-7" value="Password" style="ellipse;whiteSpace=wrap;html=1;align=center;" parent="1" vertex="1">
          <mxGeometry x="-1105" y="380" width="90" height="40" as="geometry" />
        </mxCell>
        <mxCell id="Us_oTw6PpuAewZGP5U6Y-14" value="" style="endArrow=none;html=1;rounded=0;exitX=0.5;exitY=1;exitDx=0;exitDy=0;entryX=0.5;entryY=0;entryDx=0;entryDy=0;" parent="1" source="Us_oTw6PpuAewZGP5U6Y-2" target="Us_oTw6PpuAewZGP5U6Y-1" edge="1">
          <mxGeometry relative="1" as="geometry">
            <mxPoint x="-1090" y="250" as="sourcePoint" />
            <mxPoint x="-930" y="250" as="targetPoint" />
          </mxGeometry>
        </mxCell>
        <mxCell id="Us_oTw6PpuAewZGP5U6Y-15" value="" style="endArrow=none;html=1;rounded=0;exitX=0.5;exitY=1;exitDx=0;exitDy=0;entryX=0.25;entryY=0;entryDx=0;entryDy=0;" parent="1" source="Us_oTw6PpuAewZGP5U6Y-3" target="Us_oTw6PpuAewZGP5U6Y-1" edge="1">
          <mxGeometry relative="1" as="geometry">
            <mxPoint x="-1050" y="280" as="sourcePoint" />
            <mxPoint x="-1050" y="310" as="targetPoint" />
          </mxGeometry>
        </mxCell>
        <mxCell id="Us_oTw6PpuAewZGP5U6Y-16" value="" style="endArrow=none;html=1;rounded=0;exitX=1;exitY=0.5;exitDx=0;exitDy=0;entryX=0;entryY=0.25;entryDx=0;entryDy=0;" parent="1" source="Us_oTw6PpuAewZGP5U6Y-4" target="Us_oTw6PpuAewZGP5U6Y-1" edge="1">
          <mxGeometry relative="1" as="geometry">
            <mxPoint x="-1155" y="280" as="sourcePoint" />
            <mxPoint x="-1080" y="310" as="targetPoint" />
          </mxGeometry>
        </mxCell>
        <mxCell id="Us_oTw6PpuAewZGP5U6Y-17" value="" style="endArrow=none;html=1;rounded=0;exitX=1;exitY=0.5;exitDx=0;exitDy=0;entryX=0;entryY=0.75;entryDx=0;entryDy=0;" parent="1" source="Us_oTw6PpuAewZGP5U6Y-5" target="Us_oTw6PpuAewZGP5U6Y-1" edge="1">
          <mxGeometry relative="1" as="geometry">
            <mxPoint x="-1160" y="310" as="sourcePoint" />
            <mxPoint x="-1110" y="320" as="targetPoint" />
          </mxGeometry>
        </mxCell>
        <mxCell id="Us_oTw6PpuAewZGP5U6Y-18" value="" style="endArrow=none;html=1;rounded=0;exitX=1;exitY=0;exitDx=0;exitDy=0;entryX=0.25;entryY=1;entryDx=0;entryDy=0;" parent="1" source="Us_oTw6PpuAewZGP5U6Y-24" target="Us_oTw6PpuAewZGP5U6Y-1" edge="1">
          <mxGeometry relative="1" as="geometry">
            <mxPoint x="-1175" y="380" as="sourcePoint" />
            <mxPoint x="-1110" y="340" as="targetPoint" />
          </mxGeometry>
        </mxCell>
        <mxCell id="Us_oTw6PpuAewZGP5U6Y-19" value="" style="endArrow=none;html=1;rounded=0;exitX=0.5;exitY=0;exitDx=0;exitDy=0;entryX=0.5;entryY=1;entryDx=0;entryDy=0;" parent="1" source="Us_oTw6PpuAewZGP5U6Y-7" target="Us_oTw6PpuAewZGP5U6Y-1" edge="1">
          <mxGeometry relative="1" as="geometry">
            <mxPoint x="-1155" y="390" as="sourcePoint" />
            <mxPoint x="-1080" y="350" as="targetPoint" />
          </mxGeometry>
        </mxCell>
        <mxCell id="Us_oTw6PpuAewZGP5U6Y-24" value="Address" style="ellipse;shape=doubleEllipse;margin=3;whiteSpace=wrap;html=1;align=center;" parent="1" vertex="1">
          <mxGeometry x="-1210" y="380" width="90" height="40" as="geometry" />
        </mxCell>
        <mxCell id="Us_oTw6PpuAewZGP5U6Y-25" value="d" style="ellipse;whiteSpace=wrap;html=1;rounded=1;arcSize=10;" parent="1" vertex="1">
          <mxGeometry x="-940" y="305" width="30" height="30" as="geometry" />
        </mxCell>
        <mxCell id="Us_oTw6PpuAewZGP5U6Y-32" value="" style="ellipse;whiteSpace=wrap;html=1;align=center;aspect=fixed;fillColor=none;strokeColor=none;resizable=0;perimeter=centerPerimeter;rotatable=0;allowArrows=0;points=[];outlineConnect=1;" parent="1" vertex="1">
          <mxGeometry x="-760" y="520" width="10" height="10" as="geometry" />
        </mxCell>
        <mxCell id="Us_oTw6PpuAewZGP5U6Y-42" value="" style="endArrow=none;html=1;rounded=0;exitX=0.5;exitY=1;exitDx=0;exitDy=0;entryX=1;entryY=0.5;entryDx=0;entryDy=0;entryPerimeter=0;" parent="1" source="Us_oTw6PpuAewZGP5U6Y-25" target="Us_oTw6PpuAewZGP5U6Y-40" edge="1">
          <mxGeometry relative="1" as="geometry">
            <mxPoint x="-910" y="520" as="sourcePoint" />
            <mxPoint x="-560" y="620" as="targetPoint" />
            <Array as="points" />
          </mxGeometry>
        </mxCell>
        <mxCell id="Us_oTw6PpuAewZGP5U6Y-41" value="" style="endArrow=none;html=1;rounded=0;exitX=1;exitY=0.5;exitDx=0;exitDy=0;entryX=0;entryY=0.5;entryDx=0;entryDy=0;exitPerimeter=0;" parent="1" source="Us_oTw6PpuAewZGP5U6Y-40" target="Rzq_DDP6c-UKo2eca1ub-2" edge="1">
          <mxGeometry relative="1" as="geometry">
            <mxPoint x="-1080" y="550" as="sourcePoint" />
            <mxPoint x="-920" y="550" as="targetPoint" />
            <Array as="points">
              <mxPoint x="-925" y="660" />
            </Array>
          </mxGeometry>
        </mxCell>
        <mxCell id="Us_oTw6PpuAewZGP5U6Y-40" value="" style="shape=requiredInterface;html=1;verticalLabelPosition=bottom;sketch=0;rotation=90;" parent="1" vertex="1">
          <mxGeometry x="-930" y="550" width="10" height="20" as="geometry" />
        </mxCell>
        <mxCell id="Us_oTw6PpuAewZGP5U6Y-44" value="DID" style="ellipse;whiteSpace=wrap;html=1;align=center;fontStyle=4;" parent="1" vertex="1">
          <mxGeometry x="-470" y="-160" width="80" height="40" as="geometry" />
        </mxCell>
        <mxCell id="Us_oTw6PpuAewZGP5U6Y-45" value="Name" style="ellipse;whiteSpace=wrap;html=1;align=center;" parent="1" vertex="1">
          <mxGeometry x="-370" y="-160" width="80" height="40" as="geometry" />
        </mxCell>
        <mxCell id="Us_oTw6PpuAewZGP5U6Y-46" value="Department" style="rounded=1;arcSize=10;whiteSpace=wrap;html=1;align=center;" parent="1" vertex="1">
          <mxGeometry x="-430" y="-100" width="100" height="40" as="geometry" />
        </mxCell>
        <mxCell id="Us_oTw6PpuAewZGP5U6Y-47" value="" style="endArrow=none;html=1;rounded=0;exitX=0.5;exitY=1;exitDx=0;exitDy=0;entryX=0.5;entryY=0;entryDx=0;entryDy=0;" parent="1" source="Us_oTw6PpuAewZGP5U6Y-44" target="Us_oTw6PpuAewZGP5U6Y-46" edge="1">
          <mxGeometry relative="1" as="geometry">
            <mxPoint x="-460" y="-90" as="sourcePoint" />
            <mxPoint x="-395" y="-70" as="targetPoint" />
          </mxGeometry>
        </mxCell>
        <mxCell id="Us_oTw6PpuAewZGP5U6Y-48" value="" style="endArrow=none;html=1;rounded=0;exitX=0.5;exitY=1;exitDx=0;exitDy=0;entryX=0.5;entryY=0;entryDx=0;entryDy=0;" parent="1" source="Us_oTw6PpuAewZGP5U6Y-45" target="Us_oTw6PpuAewZGP5U6Y-46" edge="1">
          <mxGeometry relative="1" as="geometry">
            <mxPoint x="-330" y="-90" as="sourcePoint" />
            <mxPoint x="-395" y="-70" as="targetPoint" />
          </mxGeometry>
        </mxCell>
        <mxCell id="Us_oTw6PpuAewZGP5U6Y-49" value="Company" style="rounded=1;arcSize=10;whiteSpace=wrap;html=1;align=center;" parent="1" vertex="1">
          <mxGeometry x="-340" y="402.53" width="100" height="40" as="geometry" />
        </mxCell>
        <mxCell id="Us_oTw6PpuAewZGP5U6Y-50" value="CompID" style="ellipse;whiteSpace=wrap;html=1;align=center;fontStyle=4;" parent="1" vertex="1">
          <mxGeometry x="-420" y="457.53" width="80" height="40" as="geometry" />
        </mxCell>
        <mxCell id="Us_oTw6PpuAewZGP5U6Y-51" value="" style="endArrow=none;html=1;rounded=0;exitX=1;exitY=0;exitDx=0;exitDy=0;entryX=0.25;entryY=1;entryDx=0;entryDy=0;" parent="1" source="Us_oTw6PpuAewZGP5U6Y-50" target="Us_oTw6PpuAewZGP5U6Y-49" edge="1">
          <mxGeometry relative="1" as="geometry">
            <mxPoint x="-380" y="537.53" as="sourcePoint" />
            <mxPoint x="-315" y="557.53" as="targetPoint" />
          </mxGeometry>
        </mxCell>
        <mxCell id="Us_oTw6PpuAewZGP5U6Y-52" value="" style="endArrow=none;html=1;rounded=0;exitX=0.5;exitY=0;exitDx=0;exitDy=0;entryX=0.5;entryY=1;entryDx=0;entryDy=0;" parent="1" source="Us_oTw6PpuAewZGP5U6Y-53" target="Us_oTw6PpuAewZGP5U6Y-49" edge="1">
          <mxGeometry relative="1" as="geometry">
            <mxPoint x="-250" y="537.53" as="sourcePoint" />
            <mxPoint x="-315" y="557.53" as="targetPoint" />
          </mxGeometry>
        </mxCell>
        <mxCell id="Us_oTw6PpuAewZGP5U6Y-53" value="Name" style="ellipse;whiteSpace=wrap;html=1;align=center;" parent="1" vertex="1">
          <mxGeometry x="-330" y="457.53" width="80" height="40" as="geometry" />
        </mxCell>
        <mxCell id="Us_oTw6PpuAewZGP5U6Y-54" value="CateID" style="ellipse;whiteSpace=wrap;html=1;align=center;" parent="1" vertex="1">
          <mxGeometry x="-220" y="402.53" width="80" height="40" as="geometry" />
        </mxCell>
        <mxCell id="Us_oTw6PpuAewZGP5U6Y-55" value="Country" style="ellipse;whiteSpace=wrap;html=1;align=center;" parent="1" vertex="1">
          <mxGeometry x="-239.99" y="457.53" width="80" height="40" as="geometry" />
        </mxCell>
        <mxCell id="Us_oTw6PpuAewZGP5U6Y-56" value="" style="endArrow=none;html=1;rounded=0;exitX=0;exitY=0.5;exitDx=0;exitDy=0;entryX=1;entryY=0.5;entryDx=0;entryDy=0;" parent="1" source="Us_oTw6PpuAewZGP5U6Y-54" target="Us_oTw6PpuAewZGP5U6Y-49" edge="1">
          <mxGeometry relative="1" as="geometry">
            <mxPoint x="-235" y="517.53" as="sourcePoint" />
            <mxPoint x="-290" y="537.53" as="targetPoint" />
          </mxGeometry>
        </mxCell>
        <mxCell id="Us_oTw6PpuAewZGP5U6Y-57" value="" style="endArrow=none;html=1;rounded=0;exitX=0;exitY=0;exitDx=0;exitDy=0;entryX=0.75;entryY=1;entryDx=0;entryDy=0;" parent="1" source="Us_oTw6PpuAewZGP5U6Y-55" target="Us_oTw6PpuAewZGP5U6Y-49" edge="1">
          <mxGeometry relative="1" as="geometry">
            <mxPoint x="-210" y="547.53" as="sourcePoint" />
            <mxPoint x="-240" y="557.53" as="targetPoint" />
          </mxGeometry>
        </mxCell>
        <mxCell id="Us_oTw6PpuAewZGP5U6Y-58" value="Order_Date" style="ellipse;whiteSpace=wrap;html=1;align=center;" parent="1" vertex="1">
          <mxGeometry x="140" y="470" width="80" height="40" as="geometry" />
        </mxCell>
        <mxCell id="Us_oTw6PpuAewZGP5U6Y-59" value="" style="endArrow=none;html=1;rounded=0;entryX=0;entryY=1;entryDx=0;entryDy=0;exitX=1;exitY=0.25;exitDx=0;exitDy=0;" parent="1" source="JLitpc6Swg50_wZY0hE7-4" target="Us_oTw6PpuAewZGP5U6Y-58" edge="1">
          <mxGeometry relative="1" as="geometry">
            <mxPoint x="75.87" y="570" as="sourcePoint" />
            <mxPoint x="125.87" y="610" as="targetPoint" />
          </mxGeometry>
        </mxCell>
        <mxCell id="Us_oTw6PpuAewZGP5U6Y-62" value="part of" style="shape=rhombus;perimeter=rhombusPerimeter;whiteSpace=wrap;html=1;align=center;" parent="1" vertex="1">
          <mxGeometry x="-240.32999999999998" y="-110" width="120" height="60" as="geometry" />
        </mxCell>
        <mxCell id="Us_oTw6PpuAewZGP5U6Y-68" value="" style="endArrow=none;html=1;rounded=0;exitX=1;exitY=0.5;exitDx=0;exitDy=0;entryX=0;entryY=0.5;entryDx=0;entryDy=0;" parent="1" source="Us_oTw6PpuAewZGP5U6Y-46" target="Us_oTw6PpuAewZGP5U6Y-62" edge="1">
          <mxGeometry relative="1" as="geometry">
            <mxPoint x="-250" y="-110" as="sourcePoint" />
            <mxPoint x="-90" y="-110" as="targetPoint" />
          </mxGeometry>
        </mxCell>
        <mxCell id="Us_oTw6PpuAewZGP5U6Y-69" value="N" style="resizable=0;html=1;whiteSpace=wrap;align=right;verticalAlign=bottom;" parent="Us_oTw6PpuAewZGP5U6Y-68" connectable="0" vertex="1">
          <mxGeometry x="1" relative="1" as="geometry">
            <mxPoint x="-10" as="offset" />
          </mxGeometry>
        </mxCell>
        <mxCell id="Us_oTw6PpuAewZGP5U6Y-70" value="" style="endArrow=none;html=1;rounded=0;exitX=0;exitY=0.5;exitDx=0;exitDy=0;entryX=1;entryY=0.5;entryDx=0;entryDy=0;" parent="1" source="JLitpc6Swg50_wZY0hE7-1" target="Us_oTw6PpuAewZGP5U6Y-62" edge="1">
          <mxGeometry relative="1" as="geometry">
            <mxPoint x="-285.33" y="-130" as="sourcePoint" />
            <mxPoint x="-235.32999999999998" y="-50" as="targetPoint" />
          </mxGeometry>
        </mxCell>
        <mxCell id="Us_oTw6PpuAewZGP5U6Y-71" value="1" style="resizable=0;html=1;whiteSpace=wrap;align=right;verticalAlign=bottom;" parent="Us_oTw6PpuAewZGP5U6Y-70" connectable="0" vertex="1">
          <mxGeometry x="1" relative="1" as="geometry">
            <mxPoint x="20" as="offset" />
          </mxGeometry>
        </mxCell>
        <mxCell id="Us_oTw6PpuAewZGP5U6Y-72" value="" style="endArrow=none;html=1;rounded=0;exitX=0.5;exitY=1;exitDx=0;exitDy=0;" parent="1" source="Us_oTw6PpuAewZGP5U6Y-46" target="Us_oTw6PpuAewZGP5U6Y-74" edge="1">
          <mxGeometry relative="1" as="geometry">
            <mxPoint x="100" y="-70" as="sourcePoint" />
            <mxPoint x="-380" as="targetPoint" />
          </mxGeometry>
        </mxCell>
        <mxCell id="Us_oTw6PpuAewZGP5U6Y-73" value="1" style="resizable=0;html=1;whiteSpace=wrap;align=right;verticalAlign=bottom;" parent="Us_oTw6PpuAewZGP5U6Y-72" connectable="0" vertex="1">
          <mxGeometry x="1" relative="1" as="geometry">
            <mxPoint x="-10" as="offset" />
          </mxGeometry>
        </mxCell>
        <mxCell id="Us_oTw6PpuAewZGP5U6Y-74" value="include to" style="shape=rhombus;perimeter=rhombusPerimeter;whiteSpace=wrap;html=1;align=center;" parent="1" vertex="1">
          <mxGeometry x="-439.9999999999998" width="120" height="60" as="geometry" />
        </mxCell>
        <mxCell id="Us_oTw6PpuAewZGP5U6Y-75" value="" style="endArrow=none;html=1;rounded=0;exitX=0;exitY=0.5;exitDx=0;exitDy=0;entryX=0.5;entryY=0;entryDx=0;entryDy=0;" parent="1" source="Us_oTw6PpuAewZGP5U6Y-74" target="Rzq_DDP6c-UKo2eca1ub-1" edge="1">
          <mxGeometry relative="1" as="geometry">
            <mxPoint x="-220" y="60" as="sourcePoint" />
            <mxPoint x="-60" y="60" as="targetPoint" />
            <Array as="points">
              <mxPoint x="-510" y="30" />
            </Array>
          </mxGeometry>
        </mxCell>
        <mxCell id="Us_oTw6PpuAewZGP5U6Y-76" value="N" style="resizable=0;html=1;whiteSpace=wrap;align=right;verticalAlign=bottom;" parent="Us_oTw6PpuAewZGP5U6Y-75" connectable="0" vertex="1">
          <mxGeometry x="1" relative="1" as="geometry">
            <mxPoint x="60" y="-120" as="offset" />
          </mxGeometry>
        </mxCell>
        <mxCell id="Us_oTw6PpuAewZGP5U6Y-77" value="Stock" style="rounded=1;arcSize=10;whiteSpace=wrap;html=1;align=center;" parent="1" vertex="1">
          <mxGeometry x="-24.130000000000003" y="50" width="100" height="40" as="geometry" />
        </mxCell>
        <mxCell id="Us_oTw6PpuAewZGP5U6Y-78" value="Product_id" style="ellipse;whiteSpace=wrap;html=1;align=center;fontStyle=4;" parent="1" vertex="1">
          <mxGeometry x="-64.13" y="-10" width="80" height="40" as="geometry" />
        </mxCell>
        <mxCell id="Us_oTw6PpuAewZGP5U6Y-79" value="" style="endArrow=none;html=1;rounded=0;exitX=1;exitY=1;exitDx=0;exitDy=0;entryX=0.5;entryY=0;entryDx=0;entryDy=0;" parent="1" source="Us_oTw6PpuAewZGP5U6Y-78" target="Us_oTw6PpuAewZGP5U6Y-77" edge="1">
          <mxGeometry relative="1" as="geometry">
            <mxPoint x="225.87" y="130" as="sourcePoint" />
            <mxPoint x="425.87" y="120" as="targetPoint" />
          </mxGeometry>
        </mxCell>
        <mxCell id="Us_oTw6PpuAewZGP5U6Y-80" value="" style="endArrow=none;html=1;rounded=0;exitX=0;exitY=1;exitDx=0;exitDy=0;entryX=0.5;entryY=0;entryDx=0;entryDy=0;" parent="1" source="Us_oTw6PpuAewZGP5U6Y-81" target="Us_oTw6PpuAewZGP5U6Y-77" edge="1">
          <mxGeometry relative="1" as="geometry">
            <mxPoint x="505.87" y="90" as="sourcePoint" />
            <mxPoint x="25.869999999999997" y="50" as="targetPoint" />
          </mxGeometry>
        </mxCell>
        <mxCell id="Us_oTw6PpuAewZGP5U6Y-81" value="Quantity" style="ellipse;whiteSpace=wrap;html=1;align=center;" parent="1" vertex="1">
          <mxGeometry x="40" y="-10" width="80" height="40" as="geometry" />
        </mxCell>
        <mxCell id="Us_oTw6PpuAewZGP5U6Y-82" value="" style="endArrow=none;html=1;rounded=0;exitX=1;exitY=0.25;exitDx=0;exitDy=0;entryX=0;entryY=0.5;entryDx=0;entryDy=0;" parent="1" source="Rzq_DDP6c-UKo2eca1ub-1" target="Us_oTw6PpuAewZGP5U6Y-84" edge="1">
          <mxGeometry relative="1" as="geometry">
            <mxPoint x="-140" y="200" as="sourcePoint" />
            <mxPoint x="100" y="170" as="targetPoint" />
            <Array as="points">
              <mxPoint x="-290" y="160" />
              <mxPoint x="-290" y="70" />
            </Array>
          </mxGeometry>
        </mxCell>
        <mxCell id="Us_oTw6PpuAewZGP5U6Y-83" value="N" style="resizable=0;html=1;whiteSpace=wrap;align=right;verticalAlign=bottom;" parent="Us_oTw6PpuAewZGP5U6Y-82" connectable="0" vertex="1">
          <mxGeometry x="1" relative="1" as="geometry">
            <mxPoint x="-10" as="offset" />
          </mxGeometry>
        </mxCell>
        <mxCell id="Us_oTw6PpuAewZGP5U6Y-84" value="contains" style="shape=rhombus;perimeter=rhombusPerimeter;whiteSpace=wrap;html=1;align=center;" parent="1" vertex="1">
          <mxGeometry x="-239.99" y="40" width="120" height="60" as="geometry" />
        </mxCell>
        <mxCell id="Us_oTw6PpuAewZGP5U6Y-85" value="" style="endArrow=none;html=1;rounded=0;exitX=0;exitY=0.5;exitDx=0;exitDy=0;entryX=1;entryY=0.5;entryDx=0;entryDy=0;" parent="1" source="Us_oTw6PpuAewZGP5U6Y-77" target="Us_oTw6PpuAewZGP5U6Y-84" edge="1">
          <mxGeometry relative="1" as="geometry">
            <mxPoint x="0.009999999999999787" y="160" as="sourcePoint" />
            <mxPoint x="-264.99" y="190" as="targetPoint" />
          </mxGeometry>
        </mxCell>
        <mxCell id="Us_oTw6PpuAewZGP5U6Y-86" value="1" style="resizable=0;html=1;whiteSpace=wrap;align=right;verticalAlign=bottom;" parent="Us_oTw6PpuAewZGP5U6Y-85" connectable="0" vertex="1">
          <mxGeometry x="1" relative="1" as="geometry">
            <mxPoint x="20" as="offset" />
          </mxGeometry>
        </mxCell>
        <mxCell id="Us_oTw6PpuAewZGP5U6Y-34" value="" style="shape=requiredInterface;html=1;verticalLabelPosition=bottom;sketch=0;rotation=-90;" parent="1" vertex="1">
          <mxGeometry x="-930" y="80" width="10" height="20" as="geometry" />
        </mxCell>
        <mxCell id="Us_oTw6PpuAewZGP5U6Y-36" value="" style="endArrow=none;html=1;rounded=0;exitX=1;exitY=0.5;exitDx=0;exitDy=0;entryX=0;entryY=0.5;entryDx=0;entryDy=0;exitPerimeter=0;" parent="1" source="Us_oTw6PpuAewZGP5U6Y-34" target="iqEW3S5Abbc1LRhvo96I-2" edge="1">
          <mxGeometry relative="1" as="geometry">
            <mxPoint x="-1070" y="170" as="sourcePoint" />
            <mxPoint x="-910" y="170" as="targetPoint" />
            <Array as="points">
              <mxPoint x="-925" y="20" />
            </Array>
          </mxGeometry>
        </mxCell>
        <mxCell id="Us_oTw6PpuAewZGP5U6Y-37" value="" style="endArrow=none;html=1;rounded=0;exitX=0.5;exitY=0;exitDx=0;exitDy=0;entryX=1;entryY=0.5;entryDx=0;entryDy=0;entryPerimeter=0;" parent="1" source="Us_oTw6PpuAewZGP5U6Y-25" target="Us_oTw6PpuAewZGP5U6Y-34" edge="1">
          <mxGeometry relative="1" as="geometry">
            <mxPoint x="-940" y="370" as="sourcePoint" />
            <mxPoint x="-590" y="470" as="targetPoint" />
            <Array as="points" />
          </mxGeometry>
        </mxCell>
        <mxCell id="Us_oTw6PpuAewZGP5U6Y-87" value="Order_Details" style="rounded=1;arcSize=10;whiteSpace=wrap;html=1;align=center;" parent="1" vertex="1">
          <mxGeometry x="-380" y="640" width="100" height="40" as="geometry" />
        </mxCell>
        <mxCell id="Us_oTw6PpuAewZGP5U6Y-89" value="" style="endArrow=none;html=1;rounded=0;exitX=1;exitY=0.5;exitDx=0;exitDy=0;entryX=0;entryY=0.5;entryDx=0;entryDy=0;" parent="1" source="iqEW3S5Abbc1LRhvo96I-2" target="iqEW3S5Abbc1LRhvo96I-31" edge="1">
          <mxGeometry relative="1" as="geometry">
            <mxPoint x="-640" y="-70" as="sourcePoint" />
            <mxPoint x="-480" y="-70" as="targetPoint" />
            <Array as="points">
              <mxPoint x="-700" y="20" />
              <mxPoint x="-700" y="-80" />
            </Array>
          </mxGeometry>
        </mxCell>
        <mxCell id="Us_oTw6PpuAewZGP5U6Y-90" value="1" style="resizable=0;html=1;whiteSpace=wrap;align=right;verticalAlign=bottom;" parent="Us_oTw6PpuAewZGP5U6Y-89" connectable="0" vertex="1">
          <mxGeometry x="1" relative="1" as="geometry">
            <mxPoint x="-10" as="offset" />
          </mxGeometry>
        </mxCell>
        <mxCell id="Us_oTw6PpuAewZGP5U6Y-91" value="" style="endArrow=none;html=1;rounded=0;exitX=1;exitY=0.5;exitDx=0;exitDy=0;entryX=0;entryY=0.5;entryDx=0;entryDy=0;" parent="1" source="iqEW3S5Abbc1LRhvo96I-31" target="Us_oTw6PpuAewZGP5U6Y-46" edge="1">
          <mxGeometry relative="1" as="geometry">
            <mxPoint x="-640" y="-70" as="sourcePoint" />
            <mxPoint x="-480" y="-70" as="targetPoint" />
          </mxGeometry>
        </mxCell>
        <mxCell id="Us_oTw6PpuAewZGP5U6Y-92" value="N" style="resizable=0;html=1;whiteSpace=wrap;align=right;verticalAlign=bottom;" parent="Us_oTw6PpuAewZGP5U6Y-91" connectable="0" vertex="1">
          <mxGeometry x="1" relative="1" as="geometry">
            <mxPoint x="-60" as="offset" />
          </mxGeometry>
        </mxCell>
        <mxCell id="Us_oTw6PpuAewZGP5U6Y-93" value="" style="endArrow=none;html=1;rounded=0;exitX=1;exitY=0.5;exitDx=0;exitDy=0;entryX=0;entryY=0.5;entryDx=0;entryDy=0;" parent="1" source="iqEW3S5Abbc1LRhvo96I-2" target="Us_oTw6PpuAewZGP5U6Y-95" edge="1">
          <mxGeometry relative="1" as="geometry">
            <mxPoint x="-725" y="270" as="sourcePoint" />
            <mxPoint x="-480" y="180" as="targetPoint" />
            <Array as="points">
              <mxPoint x="-700" y="20" />
              <mxPoint x="-700" y="310" />
            </Array>
          </mxGeometry>
        </mxCell>
        <mxCell id="Us_oTw6PpuAewZGP5U6Y-94" value="1" style="resizable=0;html=1;whiteSpace=wrap;align=right;verticalAlign=bottom;" parent="Us_oTw6PpuAewZGP5U6Y-93" connectable="0" vertex="1">
          <mxGeometry x="1" relative="1" as="geometry">
            <mxPoint x="-10" as="offset" />
          </mxGeometry>
        </mxCell>
        <mxCell id="Us_oTw6PpuAewZGP5U6Y-95" value="manage" style="shape=rhombus;perimeter=rhombusPerimeter;whiteSpace=wrap;html=1;align=center;" parent="1" vertex="1">
          <mxGeometry x="-570" y="280" width="120" height="60" as="geometry" />
        </mxCell>
        <mxCell id="Us_oTw6PpuAewZGP5U6Y-96" value="" style="endArrow=none;html=1;rounded=0;exitX=0.5;exitY=0;exitDx=0;exitDy=0;entryX=0.5;entryY=1;entryDx=0;entryDy=0;" parent="1" source="Us_oTw6PpuAewZGP5U6Y-95" target="Rzq_DDP6c-UKo2eca1ub-1" edge="1">
          <mxGeometry relative="1" as="geometry">
            <mxPoint x="-644.67" y="240" as="sourcePoint" />
            <mxPoint x="-384.67000000000024" y="249.9999999999999" as="targetPoint" />
            <Array as="points" />
          </mxGeometry>
        </mxCell>
        <mxCell id="Us_oTw6PpuAewZGP5U6Y-97" value="N" style="resizable=0;html=1;whiteSpace=wrap;align=right;verticalAlign=bottom;" parent="Us_oTw6PpuAewZGP5U6Y-96" connectable="0" vertex="1">
          <mxGeometry x="1" relative="1" as="geometry">
            <mxPoint x="-10" y="90" as="offset" />
          </mxGeometry>
        </mxCell>
        <mxCell id="Us_oTw6PpuAewZGP5U6Y-98" value="" style="endArrow=none;html=1;rounded=0;exitX=1;exitY=0.5;exitDx=0;exitDy=0;entryX=0;entryY=0.5;entryDx=0;entryDy=0;" parent="1" source="iqEW3S5Abbc1LRhvo96I-2" target="Us_oTw6PpuAewZGP5U6Y-100" edge="1">
          <mxGeometry relative="1" as="geometry">
            <mxPoint x="-760" y="20" as="sourcePoint" />
            <mxPoint x="-470" y="380" as="targetPoint" />
            <Array as="points">
              <mxPoint x="-700" y="20" />
              <mxPoint x="-700" y="423" />
            </Array>
          </mxGeometry>
        </mxCell>
        <mxCell id="Us_oTw6PpuAewZGP5U6Y-99" value="1" style="resizable=0;html=1;whiteSpace=wrap;align=right;verticalAlign=bottom;" parent="Us_oTw6PpuAewZGP5U6Y-98" connectable="0" vertex="1">
          <mxGeometry x="1" relative="1" as="geometry">
            <mxPoint x="-10" as="offset" />
          </mxGeometry>
        </mxCell>
        <mxCell id="Us_oTw6PpuAewZGP5U6Y-100" value="manage" style="shape=rhombus;perimeter=rhombusPerimeter;whiteSpace=wrap;html=1;align=center;" parent="1" vertex="1">
          <mxGeometry x="-620" y="392.53" width="120" height="60" as="geometry" />
        </mxCell>
        <mxCell id="Us_oTw6PpuAewZGP5U6Y-101" value="" style="endArrow=none;html=1;rounded=0;exitX=1;exitY=0.5;exitDx=0;exitDy=0;entryX=0;entryY=0.5;entryDx=0;entryDy=0;" parent="1" source="Us_oTw6PpuAewZGP5U6Y-100" target="Us_oTw6PpuAewZGP5U6Y-49" edge="1">
          <mxGeometry relative="1" as="geometry">
            <mxPoint x="-625.33" y="430" as="sourcePoint" />
            <mxPoint x="-370.00000000000006" y="420" as="targetPoint" />
          </mxGeometry>
        </mxCell>
        <mxCell id="Us_oTw6PpuAewZGP5U6Y-102" value="N" style="resizable=0;html=1;whiteSpace=wrap;align=right;verticalAlign=bottom;" parent="Us_oTw6PpuAewZGP5U6Y-101" connectable="0" vertex="1">
          <mxGeometry x="1" relative="1" as="geometry">
            <mxPoint x="-140" y="-3" as="offset" />
          </mxGeometry>
        </mxCell>
        <mxCell id="Us_oTw6PpuAewZGP5U6Y-103" value="produce" style="shape=rhombus;perimeter=rhombusPerimeter;whiteSpace=wrap;html=1;align=center;" parent="1" vertex="1">
          <mxGeometry x="-350" y="282.53" width="120" height="60" as="geometry" />
        </mxCell>
        <mxCell id="Us_oTw6PpuAewZGP5U6Y-104" value="" style="endArrow=none;html=1;rounded=0;exitX=1;exitY=0.75;exitDx=0;exitDy=0;entryX=0.5;entryY=0;entryDx=0;entryDy=0;" parent="1" source="Rzq_DDP6c-UKo2eca1ub-1" target="Us_oTw6PpuAewZGP5U6Y-103" edge="1">
          <mxGeometry relative="1" as="geometry">
            <mxPoint x="-360" y="270" as="sourcePoint" />
            <mxPoint x="-250" y="270" as="targetPoint" />
            <Array as="points">
              <mxPoint x="-290" y="180" />
            </Array>
          </mxGeometry>
        </mxCell>
        <mxCell id="Us_oTw6PpuAewZGP5U6Y-105" value="N" style="resizable=0;html=1;whiteSpace=wrap;align=right;verticalAlign=bottom;" parent="Us_oTw6PpuAewZGP5U6Y-104" connectable="0" vertex="1">
          <mxGeometry x="1" relative="1" as="geometry">
            <mxPoint x="-10" as="offset" />
          </mxGeometry>
        </mxCell>
        <mxCell id="Us_oTw6PpuAewZGP5U6Y-106" value="" style="endArrow=none;html=1;rounded=0;exitX=0.5;exitY=0;exitDx=0;exitDy=0;entryX=0.5;entryY=1;entryDx=0;entryDy=0;" parent="1" source="Us_oTw6PpuAewZGP5U6Y-49" target="Us_oTw6PpuAewZGP5U6Y-103" edge="1">
          <mxGeometry relative="1" as="geometry">
            <mxPoint x="-330" y="382.18999999999994" as="sourcePoint" />
            <mxPoint x="-450" y="382.18999999999994" as="targetPoint" />
          </mxGeometry>
        </mxCell>
        <mxCell id="Us_oTw6PpuAewZGP5U6Y-107" value="1" style="resizable=0;html=1;whiteSpace=wrap;align=right;verticalAlign=bottom;" parent="Us_oTw6PpuAewZGP5U6Y-106" connectable="0" vertex="1">
          <mxGeometry x="1" relative="1" as="geometry">
            <mxPoint x="-10" y="20" as="offset" />
          </mxGeometry>
        </mxCell>
        <mxCell id="Us_oTw6PpuAewZGP5U6Y-108" value="" style="endArrow=none;html=1;rounded=0;entryX=1;entryY=0.5;entryDx=0;entryDy=0;exitX=0.5;exitY=0;exitDx=0;exitDy=0;" parent="1" source="Us_oTw6PpuAewZGP5U6Y-110" target="Rzq_DDP6c-UKo2eca1ub-1" edge="1">
          <mxGeometry relative="1" as="geometry">
            <mxPoint x="45" y="360" as="sourcePoint" />
            <mxPoint x="-350.0000000000002" y="200" as="targetPoint" />
            <Array as="points">
              <mxPoint x="-60" y="170" />
            </Array>
          </mxGeometry>
        </mxCell>
        <mxCell id="Us_oTw6PpuAewZGP5U6Y-109" value="1" style="resizable=0;html=1;whiteSpace=wrap;align=right;verticalAlign=bottom;" parent="Us_oTw6PpuAewZGP5U6Y-108" connectable="0" vertex="1">
          <mxGeometry x="1" relative="1" as="geometry">
            <mxPoint x="390" y="180" as="offset" />
          </mxGeometry>
        </mxCell>
        <mxCell id="Us_oTw6PpuAewZGP5U6Y-124" value="1" style="resizable=0;html=1;whiteSpace=wrap;align=right;verticalAlign=bottom;" parent="Us_oTw6PpuAewZGP5U6Y-108" connectable="0" vertex="1">
          <mxGeometry x="1" relative="1" as="geometry">
            <mxPoint x="490" y="500" as="offset" />
          </mxGeometry>
        </mxCell>
        <mxCell id="Us_oTw6PpuAewZGP5U6Y-125" value="N" style="resizable=0;html=1;whiteSpace=wrap;align=right;verticalAlign=bottom;" parent="Us_oTw6PpuAewZGP5U6Y-108" connectable="0" vertex="1">
          <mxGeometry x="1" relative="1" as="geometry">
            <mxPoint x="340" y="500" as="offset" />
          </mxGeometry>
        </mxCell>
        <mxCell id="Us_oTw6PpuAewZGP5U6Y-110" value="include" style="shape=rhombus;perimeter=rhombusPerimeter;whiteSpace=wrap;html=1;align=center;" parent="1" vertex="1">
          <mxGeometry x="-120.33" y="270" width="120" height="60" as="geometry" />
        </mxCell>
        <mxCell id="Us_oTw6PpuAewZGP5U6Y-111" value="" style="endArrow=none;html=1;rounded=0;exitX=1;exitY=0.25;exitDx=0;exitDy=0;entryX=0.5;entryY=1;entryDx=0;entryDy=0;" parent="1" source="Us_oTw6PpuAewZGP5U6Y-87" target="Us_oTw6PpuAewZGP5U6Y-110" edge="1">
          <mxGeometry relative="1" as="geometry">
            <mxPoint x="130" y="650" as="sourcePoint" />
            <mxPoint x="-80" y="650" as="targetPoint" />
            <Array as="points">
              <mxPoint x="-160" y="650" />
              <mxPoint x="-160" y="560" />
              <mxPoint x="-60" y="560" />
            </Array>
          </mxGeometry>
        </mxCell>
        <mxCell id="Us_oTw6PpuAewZGP5U6Y-112" value="N" style="resizable=0;html=1;whiteSpace=wrap;align=right;verticalAlign=bottom;" parent="Us_oTw6PpuAewZGP5U6Y-111" connectable="0" vertex="1">
          <mxGeometry x="1" relative="1" as="geometry">
            <mxPoint x="-10" y="-60" as="offset" />
          </mxGeometry>
        </mxCell>
        <mxCell id="Us_oTw6PpuAewZGP5U6Y-113" value="" style="endArrow=none;html=1;rounded=0;exitX=1;exitY=0.5;exitDx=0;exitDy=0;entryX=0;entryY=0.5;entryDx=0;entryDy=0;" parent="1" source="iqEW3S5Abbc1LRhvo96I-2" target="Us_oTw6PpuAewZGP5U6Y-115" edge="1">
          <mxGeometry relative="1" as="geometry">
            <mxPoint x="-820" y="-130" as="sourcePoint" />
            <mxPoint x="-480" y="-220" as="targetPoint" />
            <Array as="points">
              <mxPoint x="-700" y="20" />
              <mxPoint x="-700" y="-180" />
            </Array>
          </mxGeometry>
        </mxCell>
        <mxCell id="Us_oTw6PpuAewZGP5U6Y-114" value="1" style="resizable=0;html=1;whiteSpace=wrap;align=right;verticalAlign=bottom;" parent="Us_oTw6PpuAewZGP5U6Y-113" connectable="0" vertex="1">
          <mxGeometry x="1" relative="1" as="geometry">
            <mxPoint x="-10" as="offset" />
          </mxGeometry>
        </mxCell>
        <mxCell id="Us_oTw6PpuAewZGP5U6Y-115" value="manage" style="shape=rhombus;perimeter=rhombusPerimeter;whiteSpace=wrap;html=1;align=center;" parent="1" vertex="1">
          <mxGeometry x="-640" y="-210" width="120" height="60" as="geometry" />
        </mxCell>
        <mxCell id="Us_oTw6PpuAewZGP5U6Y-116" value="" style="endArrow=none;html=1;rounded=0;exitX=1;exitY=0.5;exitDx=0;exitDy=0;entryX=0.5;entryY=0;entryDx=0;entryDy=0;" parent="1" source="Us_oTw6PpuAewZGP5U6Y-115" target="JLitpc6Swg50_wZY0hE7-1" edge="1">
          <mxGeometry relative="1" as="geometry">
            <mxPoint x="-640" y="-220" as="sourcePoint" />
            <mxPoint x="-430" y="-230" as="targetPoint" />
            <Array as="points">
              <mxPoint x="30" y="-180" />
            </Array>
          </mxGeometry>
        </mxCell>
        <mxCell id="Us_oTw6PpuAewZGP5U6Y-117" value="N" style="resizable=0;html=1;whiteSpace=wrap;align=right;verticalAlign=bottom;" parent="Us_oTw6PpuAewZGP5U6Y-116" connectable="0" vertex="1">
          <mxGeometry x="1" relative="1" as="geometry">
            <mxPoint x="-520" y="-80" as="offset" />
          </mxGeometry>
        </mxCell>
        <mxCell id="Us_oTw6PpuAewZGP5U6Y-118" value="" style="endArrow=none;html=1;rounded=0;exitX=1;exitY=0.5;exitDx=0;exitDy=0;entryX=0;entryY=0.5;entryDx=0;entryDy=0;" parent="1" source="iqEW3S5Abbc1LRhvo96I-2" target="Us_oTw6PpuAewZGP5U6Y-120" edge="1">
          <mxGeometry relative="1" as="geometry">
            <mxPoint x="-780" y="-40" as="sourcePoint" />
            <mxPoint x="-480" y="-280" as="targetPoint" />
            <Array as="points">
              <mxPoint x="-700" y="20" />
              <mxPoint x="-700" y="-240" />
            </Array>
          </mxGeometry>
        </mxCell>
        <mxCell id="Us_oTw6PpuAewZGP5U6Y-119" value="1" style="resizable=0;html=1;whiteSpace=wrap;align=right;verticalAlign=bottom;" parent="Us_oTw6PpuAewZGP5U6Y-118" connectable="0" vertex="1">
          <mxGeometry x="1" relative="1" as="geometry">
            <mxPoint x="-10" as="offset" />
          </mxGeometry>
        </mxCell>
        <mxCell id="Us_oTw6PpuAewZGP5U6Y-120" value="manage" style="shape=rhombus;perimeter=rhombusPerimeter;whiteSpace=wrap;html=1;align=center;" parent="1" vertex="1">
          <mxGeometry x="-240.32999999999998" y="-270" width="120" height="60" as="geometry" />
        </mxCell>
        <mxCell id="Us_oTw6PpuAewZGP5U6Y-121" value="" style="endArrow=none;html=1;rounded=0;exitX=1;exitY=0.5;exitDx=0;exitDy=0;entryX=1;entryY=0.5;entryDx=0;entryDy=0;" parent="1" source="Us_oTw6PpuAewZGP5U6Y-120" target="Us_oTw6PpuAewZGP5U6Y-77" edge="1">
          <mxGeometry relative="1" as="geometry">
            <mxPoint x="-640" y="-280" as="sourcePoint" />
            <mxPoint x="260" y="-20" as="targetPoint" />
            <Array as="points">
              <mxPoint x="220" y="-240" />
              <mxPoint x="220" y="70" />
            </Array>
          </mxGeometry>
        </mxCell>
        <mxCell id="Us_oTw6PpuAewZGP5U6Y-122" value="N" style="resizable=0;html=1;whiteSpace=wrap;align=right;verticalAlign=bottom;" parent="Us_oTw6PpuAewZGP5U6Y-121" connectable="0" vertex="1">
          <mxGeometry x="1" relative="1" as="geometry">
            <mxPoint x="-166" y="-310" as="offset" />
          </mxGeometry>
        </mxCell>
        <mxCell id="Us_oTw6PpuAewZGP5U6Y-123" value="contains" style="shape=rhombus;perimeter=rhombusPerimeter;whiteSpace=wrap;html=1;align=center;" parent="1" vertex="1">
          <mxGeometry x="-110" y="640" width="120" height="60" as="geometry" />
        </mxCell>
      </root>
    </mxGraphModel>
  </diagram>
</mxfile>
